<?xml version="1.0" encoding="utf-8"?>
<!-- Generator: Adobe Illustrator 20.0.0, SVG Export Plug-In . SVG Version: 6.00 Build 0)  -->
<svg version="1.1" id="Layer_1" xmlns="http://www.w3.org/2000/svg" xmlns:xlink="http://www.w3.org/1999/xlink" x="0px" y="0px"
	 viewBox="0 0 841.9 595.3" style="enable-background:new 0 0 841.9 595.3;" xml:space="preserve">
<style type="text/css">
	.st0{fill:#FFFFFF;}
</style>
<g>
	<path class="st0" d="M420.9,549.7l-252-252.1l1.4-1.4L420.9,45.6l252.1,252l-1.4,1.4L420.9,549.7z M174.5,297.6L420.9,544
		l246.4-246.4L420.9,51.2L174.5,297.6z"/>
</g>
<g>
	<path class="st0" d="M420.9,305.6L313.3,198v221l211.4-211.4v153.7h4V198L420.9,305.6z M317.3,409.3v-98.4h98.4L317.3,409.3z
		 M317.3,306.9v-99.3l99.3,99.3H317.3z"/>
	<polygon class="st0" points="420.9,284 313.3,176.3 313.3,182 420.9,289.6 528.6,182 528.6,176.3 	"/>
</g>
</svg>
